<svg id="Layer_3" data-name="Layer 3" xmlns="http://www.w3.org/2000/svg" viewBox="0 0 245.8037 200.747"><defs><style>.cls-1{fill:#005773;}.cls-2{fill:#002c3d;}.cls-3{fill:#c9c9c9;}.cls-4{fill:#efefef;}</style></defs><title>Down</title><path class="cls-1" d="M6.3808,150.0981H239.4229a6.3808,6.3808,0,0,1,6.3808,6.3808v37.8863a6.3818,6.3818,0,0,1-6.3818,6.3818H6.3818A6.3818,6.3818,0,0,1,0,194.3652V156.4789A6.3808,6.3808,0,0,1,6.3808,150.0981Z"/><rect class="cls-2" x="6.7432" y="132.6787" width="232.3164" height="17.4194"/><path class="cls-1" d="M648.249,227.897V211.251H625.5732v16.646H540.1807V211.251h-22.68v16.646S504.709,313.05,466.7188,343.93H699.0332C661.043,313.05,648.249,227.897,648.249,227.897Z" transform="translate(-459.9756 -211.251)"/><path class="cls-3" d="M625.377,265.68A46.183,46.183,0,1,0,608.36,328.7383,46.18,46.18,0,0,0,625.377,265.68Zm-31.4815-17.2031a6.3855,6.3855,0,1,1-6.3916,6.3735A6.3861,6.3861,0,0,1,593.8955,248.4766Zm-21.2568,1.1093a6.3865,6.3865,0,1,1-2.3477,8.7168A6.39,6.39,0,0,1,572.6387,249.5859Zm-17.8535,11.5913a6.3849,6.3849,0,1,1,2.3232,8.7247A6.3883,6.3883,0,0,1,554.7852,261.1772Zm-9.667,18.9649a6.3853,6.3853,0,1,1,6.373,6.3931A6.3883,6.3883,0,0,1,545.1182,280.1421ZM546.2266,301.4a6.3862,6.3862,0,1,1,8.7168,2.3481A6.3908,6.3908,0,0,1,546.2266,301.4Zm20.3144,15.5312a6.3838,6.3838,0,1,1-2.32-8.728A6.3855,6.3855,0,0,1,566.541,316.9316ZM576.7832,328.92a6.3853,6.3853,0,1,1,6.3916-6.373A6.389,6.389,0,0,1,576.7832,328.92Zm21.2568-1.11a6.3856,6.3856,0,1,1,2.35-8.7153A6.3847,6.3847,0,0,1,598.04,327.8105Zm-0.5771-18.0312a24.3171,24.3171,0,1,1,8.957-33.2007A24.3186,24.3186,0,0,1,597.4629,309.7793Zm8.9951-40.5869a6.3852,6.3852,0,1,1,8.7266-2.32A6.3826,6.3826,0,0,1,606.458,269.1924ZM622.1,284.7183a6.3863,6.3863,0,1,1,2.3525-8.7193A6.388,6.388,0,0,1,622.1,284.7183Z" transform="translate(-459.9756 -211.251)"/><path class="cls-4" d="M625.377,263.5522A46.183,46.183,0,1,0,608.36,326.6108,46.1806,46.1806,0,0,0,625.377,263.5522Zm-31.4815-17.2036a6.3858,6.3858,0,1,1-6.3916,6.3745A6.3872,6.3872,0,0,1,593.8955,246.3486ZM572.6387,247.46a6.3861,6.3861,0,1,1-2.3477,8.7168A6.3888,6.3888,0,0,1,572.6387,247.46Zm-17.8535,11.59a6.3852,6.3852,0,1,1,2.3232,8.7256A6.39,6.39,0,0,1,554.7852,259.0493Zm-9.667,18.9658a6.3853,6.3853,0,1,1,6.373,6.3926A6.3877,6.3877,0,0,1,545.1182,278.0151Zm1.1084,21.2578a6.3862,6.3862,0,1,1,8.7168,2.3482A6.39,6.39,0,0,1,546.2266,299.2729Zm20.3144,15.5313a6.3838,6.3838,0,1,1-2.32-8.7275A6.3846,6.3846,0,0,1,566.541,314.8042Zm10.2422,11.9888a6.3853,6.3853,0,1,1,6.3916-6.3716A6.3885,6.3885,0,0,1,576.7832,326.793Zm21.2568-1.1094a6.3858,6.3858,0,1,1,2.35-8.7158A6.3848,6.3848,0,0,1,598.04,325.6836Zm-0.5771-18.0317a24.3172,24.3172,0,1,1,8.957-33.2012A24.3182,24.3182,0,0,1,597.4629,307.6519Zm8.9951-40.5865a6.3851,6.3851,0,1,1,8.7266-2.32A6.3826,6.3826,0,0,1,606.458,267.0654ZM622.1,282.59a6.3858,6.3858,0,1,1,2.3525-8.7187A6.3872,6.3872,0,0,1,622.1,282.59Z" transform="translate(-459.9756 -211.251)"/><path class="cls-2" d="M599.8281,302.46l20.249,14.7388a3.9433,3.9433,0,1,1-4.6416,6.376,4.0509,4.0509,0,0,1-.8671-0.8667Z" transform="translate(-459.9756 -211.251)"/></svg>