<svg id="Objects" xmlns="http://www.w3.org/2000/svg" viewBox="0 0 270.0371 96.7876"><defs><style>.cls-1{fill:#002c3d;}.cls-2{fill:#005773;}</style></defs><title>Upper</title><path class="cls-1" d="M661.5234,211.5625v29.7808h53.1807V231.2388a65.9432,65.9432,0,0,0-65.9434-65.9434H516.874a65.945,65.945,0,0,0-65.9433,65.9434v10.1045h53.1806V211.5625a4.2556,4.2556,0,0,1,4.2539-4.2544H657.2695A4.2531,4.2531,0,0,1,661.5234,211.5625Z" transform="translate(-447.8584 -165.2954)"/><path class="cls-2" d="M216.8564,69.6665h48.9268a4.2539,4.2539,0,0,1,4.2539,4.2539V92.5327a4.2549,4.2549,0,0,1-4.2549,4.2549H216.8569a4.2544,4.2544,0,0,1-4.2544-4.2544V73.92A4.2539,4.2539,0,0,1,216.8564,69.6665Z"/><rect class="cls-2" y="69.6665" width="57.4346" height="27.1211" rx="4.2539" ry="4.2539"/></svg>